<?xml version="1.0" encoding="utf-8"?>
<!-- Generator: Adobe Illustrator 23.0.4, SVG Export Plug-In . SVG Version: 6.00 Build 0)  -->
<svg version="1.1" id="Layer_1" xmlns="http://www.w3.org/2000/svg" xmlns:xlink="http://www.w3.org/1999/xlink" x="0px" y="0px"
	 viewBox="0 0 50 50" style="enable-background:new 0 0 50 50;" xml:space="preserve">
<style type="text/css">
	.st0{fill:none;stroke:#000000;stroke-width:4;stroke-linecap:round;stroke-linejoin:round;}
</style>
<g>
	<path class="st0" d="M11.04,25.69c0.25,1.84,1.26,3.37,3.1,4.5c2.46,1.51,5.18,1.69,8.16,0.86c-0.14,0.26-0.2,0.43-0.32,0.57
		c-1.12,1.35-2.23,2.71-3.4,4.03c-0.63,0.72-0.75,1.48-0.03,1.93c0.37,0.23,0.91,0.39,1.38,0.39C23.63,38.01,27.32,38,31,38
		c0.14,0,0.28,0,0.42-0.02c1.41-0.18,1.96-1.27,1.11-2.18c-0.15-0.16-0.33-0.31-0.49-0.46c-1.26-1.24-2.37-2.56-3.29-4.14
		c2.46,0.69,4.74,0.66,6.92-0.26c2.19-0.93,3.57-2.39,4.12-4.33c0.47-1.66,0.14-3.24-0.95-4.7c-1.49-1.98-3.76-2.98-6.58-3.19
		c0.86-4.04-2.82-6.59-6.3-6.7c-1.79-0.06-3.4,0.37-4.75,1.32c-1.98,1.4-2.6,3.2-2.24,5.24C13.3,18.88,10.63,22.61,11.04,25.69z"/>
</g>
</svg>
