<?xml version="1.0" encoding="utf-8"?>
<!-- Generator: Adobe Illustrator 23.0.4, SVG Export Plug-In . SVG Version: 6.00 Build 0)  -->
<svg version="1.1" id="Layer_1" xmlns="http://www.w3.org/2000/svg" xmlns:xlink="http://www.w3.org/1999/xlink" x="0px" y="0px"
	 viewBox="0 0 50 50" style="enable-background:new 0 0 50 50;" xml:space="preserve">
<style type="text/css">
	.st0{fill:none;stroke:#000000;stroke-width:4;stroke-linecap:round;stroke-linejoin:round;}
</style>
<g>
	<path class="st0" d="M12.6,24.38c-0.31,0.7-0.32,1.5-0.02,2.2c0.21,0.48,0.43,0.94,0.78,1.35c2.85,3.27,5.8,6.5,8.74,9.73
		c1.63,1.79,4.44,1.79,6.07,0.01c2.95-3.24,5.9-6.48,8.78-9.74c1.21-1.37,1.22-3.44,0.01-4.82c-2.87-3.26-5.81-6.5-8.76-9.73
		c-1.68-1.85-4.44-1.85-6.12,0c-2.92,3.21-5.85,6.42-8.69,9.67C13.05,23.44,12.82,23.9,12.6,24.38z"/>
</g>
</svg>
