<?xml version="1.0" encoding="utf-8"?>
<!-- Generator: Adobe Illustrator 23.0.4, SVG Export Plug-In . SVG Version: 6.00 Build 0)  -->
<svg version="1.1" id="Layer_1" xmlns="http://www.w3.org/2000/svg" xmlns:xlink="http://www.w3.org/1999/xlink" x="0px" y="0px"
	 viewBox="0 0 50 50" style="enable-background:new 0 0 50 50;" xml:space="preserve">
<style type="text/css">
	.st0{fill:none;stroke:#000000;stroke-width:4;stroke-linecap:round;stroke-linejoin:round;}
</style>
<g>
	<path class="st0" d="M12.49,25.49c0.81,3.47,2.5,5.33,6.51,5.51c0.59,0.03,1.95-0.25,2.78-0.37c-0.13,0.25-0.24,0.47-0.36,0.7
		C20,34,20,34,18.98,35.71c-0.31,0.52-0.64,0.91-0.37,1.45c0.28,0.55,0.84,0.75,1.51,0.76c3.26,0.05,6.53,0.1,9.79,0.15
		c0.66,0.01,1.23-0.18,1.53-0.71c0.3-0.54-0.02-0.94-0.33-1.46C30,34,30,34,29.06,31.87c-0.17-0.38-0.37-0.72-0.62-1.22
		c0.41,0.1,0.61,0.16,0.82,0.21c3.85,1.01,6.68-0.5,8.16-3.68c1.36-2.93,1.03-5.75-1.16-8.34c-2.69-3.19-6.45-5.19-10.56-6.78
		c-0.17-0.07-0.44-0.06-0.62,0c-3.84,1.33-7.34,3.09-10.11,5.77C12.72,20.02,11.8,22.56,12.49,25.49z"/>
</g>
</svg>
