<?xml version="1.0" encoding="utf-8"?>
<!-- Generator: Adobe Illustrator 23.0.4, SVG Export Plug-In . SVG Version: 6.00 Build 0)  -->
<svg version="1.1" id="Layer_1" xmlns="http://www.w3.org/2000/svg" xmlns:xlink="http://www.w3.org/1999/xlink" x="0px" y="0px"
	 viewBox="0 0 90 180" style="enable-background:new 0 0 90 180;" xml:space="preserve">
<g>
	<path d="M19.57,128.14c-0.76,0.76-1.83,0.7-2.54,0l-8.56-8.56l-2.05,2.05c-0.59,0.59-1.51,0.59-2.11,0c-0.59-0.59-0.59-1.51,0-2.11
		l2.05-2.05l-3.54-3.54c-0.7-0.7-0.76-1.78,0-2.54c0.76-0.76,1.84-0.7,2.54,0l3.54,3.54l2.32-2.32c0.59-0.59,1.51-0.59,2.11,0
		c0.59,0.59,0.59,1.51,0,2.11l-2.32,2.32l8.56,8.56C20.27,126.31,20.33,127.39,19.57,128.14z"/>
	<path d="M36.28,111.43c-0.76,0.76-1.83,0.7-2.54,0l-5.4-5.4c-1.89-1.89-4.32-2.27-6.34-0.24c-2.02,2.02-1.7,4.67,0.14,6.51
		l5.37,5.37c0.7,0.7,0.73,1.81,0,2.54c-0.76,0.76-1.84,0.7-2.54,0L9.13,104.36c-0.81-0.81-0.76-1.84-0.03-2.57
		c0.7-0.7,1.67-0.86,2.56,0.03l7.13,7.13c-0.7-2.21-0.16-4.37,1.62-6.15c3.1-3.1,7.18-2.59,10.37,0.59l5.51,5.51
		C36.96,109.56,37.09,110.62,36.28,111.43z"/>
	<path d="M46.34,89.28c0.43,0.43,0.62,1.11-0.11,1.84l-8.07,8.07c2,1.73,4.67,1.86,6.91-0.38c1.4-1.4,1.75-2.73,1.81-4.45
		c0-0.43,0.11-0.92,0.43-1.24c0.57-0.57,1.46-0.65,2.1,0c0.27,0.27,0.38,0.65,0.41,1.05c0.16,2.21-0.89,4.83-2.83,6.78
		c-4.02,4.02-8.96,3.35-12.34-0.03c-3.54-3.54-3.62-8.75-0.14-12.23C37.91,85.29,42.88,85.83,46.34,89.28z M36.54,90.71
		c-1.86,1.86-1.81,4.45-0.38,6.37l6.64-6.64C40.96,89.04,38.37,88.88,36.54,90.71z"/>
	<path d="M74.26,73.46c-0.73,0.73-1.84,0.7-2.54,0l-5.4-5.4c-1.86-1.86-4.18-2.4-6.18-0.41s-1.67,4.75,0.11,6.53l5.37,5.37
		c0.7,0.7,0.78,1.75,0,2.54c-0.76,0.76-1.84,0.7-2.54,0l-5.4-5.4c-1.86-1.86-4.27-2.32-6.26-0.32c-2.05,2.05-1.59,4.67,0.19,6.45
		l5.37,5.37c0.7,0.7,0.76,1.78,0,2.54c-0.73,0.73-1.84,0.7-2.54,0l-9.58-9.58c-0.76-0.76-0.81-1.78-0.03-2.57
		c0.86-0.86,1.86-0.67,2.56,0.03l0.86,0.86c-0.7-2.16-0.05-4.48,1.54-6.07c1.94-1.94,4.37-2.43,6.53-1.73
		c-0.57-2.67,0.19-4.99,2.11-6.91c3.27-3.27,7.07-2.59,10.23,0.57l5.59,5.59C74.96,71.62,75.01,72.7,74.26,73.46z"/>
	<path d="M84.31,51.31c0.43,0.43,0.62,1.11-0.11,1.84l-8.07,8.07c2,1.73,4.67,1.86,6.91-0.38c1.4-1.4,1.75-2.73,1.81-4.45
		c0-0.43,0.11-0.92,0.43-1.24c0.57-0.57,1.46-0.65,2.1,0c0.27,0.27,0.38,0.65,0.41,1.05c0.16,2.21-0.89,4.83-2.83,6.78
		c-4.02,4.02-8.96,3.35-12.34-0.03c-3.54-3.54-3.62-8.75-0.14-12.23C75.89,47.31,80.85,47.85,84.31,51.31z M74.51,52.74
		c-1.86,1.86-1.81,4.45-0.38,6.37l6.64-6.64C78.94,51.07,76.35,50.9,74.51,52.74z"/>
</g>
</svg>
